<svg xmlns="http://www.w3.org/2000/svg" xmlns:xlink="http://www.w3.org/1999/xlink" width="1920" zoomAndPan="magnify" viewBox="0 0 1440 809.999993" height="1080" preserveAspectRatio="xMidYMid meet" version="1.0"><defs><clipPath id="2e947cf1bb"><path d="M 1415 99 L 1439.996094 99 L 1439.996094 149 L 1415 149 Z M 1415 99 " clip-rule="nonzero"/></clipPath><clipPath id="6d0a5a8505"><path d="M 1415 123 L 1439.996094 123 L 1439.996094 149 L 1415 149 Z M 1415 123 " clip-rule="nonzero"/></clipPath><clipPath id="5fba04b099"><path d="M 1415 167 L 1439.996094 167 L 1439.996094 217 L 1415 217 Z M 1415 167 " clip-rule="nonzero"/></clipPath><clipPath id="bc78a5f5b7"><path d="M 1415 191 L 1439.996094 191 L 1439.996094 217 L 1415 217 Z M 1415 191 " clip-rule="nonzero"/></clipPath><clipPath id="2a603662ba"><path d="M 1415 235 L 1439.996094 235 L 1439.996094 285 L 1415 285 Z M 1415 235 " clip-rule="nonzero"/></clipPath><clipPath id="f81acec42b"><path d="M 1415 259 L 1439.996094 259 L 1439.996094 285 L 1415 285 Z M 1415 259 " clip-rule="nonzero"/></clipPath></defs><path fill="#565851" d="M 1377.617188 116.863281 L 1375.648438 117.875 L 1375.480469 123.734375 L 1375.480469 129.816406 L 1377.449219 130.828125 C 1377.449219 130.828125 1393.199219 137.867188 1412.152344 142.824219 L 1412.605469 104.808594 C 1393.535156 109.765625 1377.617188 116.863281 1377.617188 116.863281 " fill-opacity="1" fill-rule="nonzero"/><g clip-path="url(#2e947cf1bb)"><path fill="#565851" d="M 1437.691406 147.273438 L 1439.433594 148.117188 L 1439.714844 123.902344 L 1439.714844 123.675781 L 1439.996094 99.460938 L 1438.253906 100.304688 C 1430.828125 100.867188 1423.011719 102.277344 1415.527344 104.132812 L 1415.078125 143.554688 C 1422.449219 145.359375 1430.265625 146.765625 1437.691406 147.273438 " fill-opacity="1" fill-rule="nonzero"/></g><path fill="#acada6" d="M 1415.527344 104.132812 L 1412.605469 104.808594 L 1412.378906 126.324219 C 1413.335938 126.324219 1414.292969 126.265625 1415.246094 126.265625 L 1415.527344 104.132812 " fill-opacity="1" fill-rule="nonzero"/><g clip-path="url(#6d0a5a8505)"><path fill="#3a3a34" d="M 1439.714844 123.902344 L 1439.714844 123.28125 C 1433.867188 124.691406 1425.765625 125.984375 1415.246094 126.265625 L 1415.078125 143.554688 C 1422.449219 145.359375 1430.265625 146.765625 1437.691406 147.273438 L 1439.433594 148.117188 L 1439.714844 123.902344 " fill-opacity="1" fill-rule="nonzero"/></g><path fill="#3a3a34" d="M 1412.378906 126.324219 C 1409.566406 126.324219 1406.640625 126.265625 1403.546875 126.152344 C 1396.742188 125.871094 1390.949219 125.085938 1386.054688 124.070312 L 1386.054688 134.375 C 1392.464844 136.796875 1401.859375 140.121094 1412.152344 142.824219 L 1412.378906 126.324219 " fill-opacity="1" fill-rule="nonzero"/><path fill="#6f726d" d="M 1415.246094 126.265625 C 1414.292969 126.265625 1413.335938 126.324219 1412.378906 126.324219 L 1412.152344 142.824219 L 1415.078125 143.554688 L 1415.246094 126.265625 " fill-opacity="1" fill-rule="nonzero"/><path fill="#565851" d="M 1377.617188 184.890625 L 1375.648438 185.90625 L 1375.480469 191.820312 L 1375.480469 197.902344 L 1377.449219 198.914062 C 1377.449219 198.914062 1393.199219 205.953125 1412.152344 210.855469 L 1412.605469 172.898438 C 1393.535156 177.851562 1377.617188 184.890625 1377.617188 184.890625 " fill-opacity="1" fill-rule="nonzero"/><g clip-path="url(#5fba04b099)"><path fill="#565851" d="M 1437.691406 215.300781 L 1439.433594 216.203125 L 1439.714844 191.929688 L 1439.714844 191.761719 L 1439.996094 167.546875 L 1438.253906 168.390625 C 1430.828125 168.898438 1423.011719 170.363281 1415.527344 172.164062 L 1415.078125 211.585938 C 1422.449219 213.386719 1430.265625 214.796875 1437.691406 215.300781 " fill-opacity="1" fill-rule="nonzero"/></g><path fill="#acada6" d="M 1415.527344 172.164062 L 1412.605469 172.898438 L 1412.378906 194.351562 C 1413.335938 194.351562 1414.292969 194.351562 1415.246094 194.296875 L 1415.527344 172.164062 " fill-opacity="1" fill-rule="nonzero"/><g clip-path="url(#bc78a5f5b7)"><path fill="#3a3a34" d="M 1439.714844 191.929688 L 1439.714844 191.3125 C 1433.867188 192.777344 1425.765625 194.015625 1415.246094 194.296875 L 1415.078125 211.585938 C 1422.449219 213.386719 1430.265625 214.796875 1437.691406 215.300781 L 1439.433594 216.203125 L 1439.714844 191.929688 " fill-opacity="1" fill-rule="nonzero"/></g><path fill="#3a3a34" d="M 1412.378906 194.351562 C 1409.566406 194.410156 1406.640625 194.351562 1403.546875 194.242188 C 1396.742188 193.957031 1390.949219 193.171875 1386.054688 192.101562 L 1386.054688 202.40625 C 1392.464844 204.882812 1401.859375 208.207031 1412.152344 210.855469 L 1412.378906 194.351562 " fill-opacity="1" fill-rule="nonzero"/><path fill="#6f726d" d="M 1415.246094 194.296875 C 1414.292969 194.351562 1413.335938 194.351562 1412.378906 194.351562 L 1412.152344 210.855469 L 1415.078125 211.585938 L 1415.246094 194.296875 " fill-opacity="1" fill-rule="nonzero"/><path fill="#565851" d="M 1377.617188 252.976562 L 1375.648438 253.992188 L 1375.480469 259.90625 L 1375.480469 265.929688 L 1377.449219 267 C 1377.449219 267 1393.199219 273.984375 1412.152344 278.941406 L 1412.605469 240.925781 C 1393.535156 245.882812 1377.617188 252.976562 1377.617188 252.976562 " fill-opacity="1" fill-rule="nonzero"/><g clip-path="url(#2a603662ba)"><path fill="#565851" d="M 1437.691406 283.390625 L 1439.433594 284.234375 L 1439.714844 260.019531 L 1439.714844 259.847656 L 1439.996094 235.578125 L 1438.253906 236.421875 C 1430.828125 236.984375 1423.011719 238.390625 1415.527344 240.25 L 1415.078125 279.671875 C 1422.449219 281.472656 1430.265625 282.882812 1437.691406 283.390625 " fill-opacity="1" fill-rule="nonzero"/></g><path fill="#acada6" d="M 1415.527344 240.25 L 1412.605469 240.925781 L 1412.378906 262.4375 C 1413.335938 262.4375 1414.292969 262.382812 1415.246094 262.382812 L 1415.527344 240.25 " fill-opacity="1" fill-rule="nonzero"/><g clip-path="url(#f81acec42b)"><path fill="#3a3a34" d="M 1439.714844 260.019531 L 1439.714844 259.398438 C 1433.867188 260.804688 1425.765625 262.101562 1415.246094 262.382812 L 1415.078125 279.671875 C 1422.449219 281.472656 1430.265625 282.882812 1437.691406 283.390625 L 1439.433594 284.234375 L 1439.714844 260.019531 " fill-opacity="1" fill-rule="nonzero"/></g><path fill="#3a3a34" d="M 1412.378906 262.4375 C 1409.566406 262.4375 1406.640625 262.382812 1403.546875 262.269531 C 1396.742188 261.988281 1390.949219 261.257812 1386.054688 260.1875 L 1386.054688 270.492188 C 1392.464844 272.96875 1401.859375 276.238281 1412.152344 278.941406 L 1412.378906 262.4375 " fill-opacity="1" fill-rule="nonzero"/><path fill="#6f726d" d="M 1415.246094 262.382812 C 1414.292969 262.382812 1413.335938 262.4375 1412.378906 262.4375 L 1412.152344 278.941406 L 1415.078125 279.671875 L 1415.246094 262.382812 " fill-opacity="1" fill-rule="nonzero"/><path fill="#565851" d="M 1325.527344 103.851562 L 1347.015625 65.109375 C 1347.804688 63.699219 1349.378906 62.796875 1351.011719 62.796875 L 1364.847656 62.796875 C 1367.378906 62.796875 1369.402344 64.824219 1369.402344 67.359375 L 1369.402344 95.238281 L 1325.417969 104.023438 L 1325.527344 103.851562 " fill-opacity="1" fill-rule="nonzero"/><path fill="#565851" d="M 1325.527344 278.996094 L 1347.015625 317.742188 C 1347.804688 319.148438 1349.378906 320.050781 1351.011719 320.050781 L 1364.847656 320.050781 C 1367.378906 320.050781 1369.402344 318.023438 1369.402344 315.488281 L 1369.402344 287.613281 L 1325.417969 278.828125 L 1325.527344 278.996094 " fill-opacity="1" fill-rule="nonzero"/><path fill="#c9c7c3" d="M 395.546875 191.03125 L 395.546875 153.917969 L 351.671875 153.917969 L 351.671875 191.03125 L 395.546875 191.03125 M 338.171875 238.390625 L 200.191406 212.035156 L 200.191406 170.757812 L 338.171875 144.402344 L 494.996094 144.402344 L 494.996094 238.390625 L 338.171875 238.390625 " fill-opacity="1" fill-rule="nonzero"/><path fill="#565851" d="M 536.511719 241.828125 L 522.449219 241.828125 L 522.449219 140.964844 L 536.511719 140.964844 L 552.542969 133.871094 L 552.542969 248.921875 L 536.511719 241.828125 " fill-opacity="1" fill-rule="nonzero"/><path fill="#676f69" d="M 188.605469 212.035156 L 188.605469 170.757812 L 200.191406 170.757812 L 200.191406 212.035156 L 188.605469 212.035156 " fill-opacity="1" fill-rule="nonzero"/><path fill="#565851" d="M 1369.402344 95.238281 L 1376.773438 93.773438 L 1386.054688 93.773438 L 1386.054688 289.019531 L 1376.773438 289.019531 L 1292.453125 272.125 L 1292.453125 110.667969 L 1325.417969 104.023438 L 1369.402344 95.238281 " fill-opacity="1" fill-rule="nonzero"/><path fill="#c9c7c3" d="M 82.121094 198.011719 L 82.121094 184.78125 L 120.089844 184.78125 L 120.089844 198.011719 L 82.121094 198.011719 " fill-opacity="1" fill-rule="nonzero"/><path fill="#c9c7c3" d="M 188.605469 212.035156 L 138.878906 212.035156 L 120.089844 198.011719 L 120.089844 184.78125 L 138.878906 170.757812 L 188.605469 170.757812 L 188.605469 212.035156 " fill-opacity="1" fill-rule="nonzero"/><path fill="#c9c7c3" d="M 1292.453125 110.667969 L 1292.453125 272.125 L 1289.921875 267.902344 L 1289.921875 114.890625 L 1292.453125 110.667969 " fill-opacity="1" fill-rule="nonzero"/><path fill="#565851" d="M 943.027344 117.367188 L 943.027344 265.367188 L 898.761719 265.367188 L 898.761719 117.367188 Z M 943.027344 117.367188 " fill-opacity="1" fill-rule="nonzero"/><path fill="#c9c7c3" d="M 893.753906 267.058594 L 893.753906 115.679688 L 898.761719 117.367188 L 898.761719 265.425781 L 893.753906 267.058594 " fill-opacity="1" fill-rule="nonzero"/><path fill="#565851" d="M 1113.746094 265.425781 L 1113.746094 117.367188 L 1118.808594 114.890625 L 1118.808594 267.902344 L 1113.746094 265.425781 " fill-opacity="1" fill-rule="nonzero"/><path fill="#c9c7c3" d="M 821.246094 268.746094 L 821.246094 114.046875 L 830.527344 118.214844 L 830.527344 264.578125 L 821.246094 268.746094 " fill-opacity="1" fill-rule="nonzero"/><path fill="#565851" d="M 744.523438 262.328125 L 744.523438 120.464844 L 761.398438 114.046875 L 761.398438 268.746094 L 744.523438 262.328125 " fill-opacity="1" fill-rule="nonzero"/><path fill="#c9c7c3" d="M 821.246094 114.046875 L 821.246094 268.804688 L 761.398438 268.804688 L 761.398438 114.046875 Z M 821.246094 114.046875 " fill-opacity="1" fill-rule="nonzero"/><path fill="#c9c7c3" d="M 81.730469 191.144531 L 81.730469 198.011719 L 82.121094 198.011719 L 82.121094 198.183594 L 81.054688 199.308594 L 77.847656 199.308594 L 76.835938 198.351562 C 76.328125 194.578125 72.730469 195.140625 72.730469 195.140625 L 8.546875 195.140625 C 8.546875 195.140625 0.0546875 195.761719 0.0546875 191.199219 C 0.0546875 186.582031 8.152344 187.257812 8.152344 187.257812 C 8.152344 187.257812 68.566406 187.652344 72.730469 187.257812 C 75.597656 186.917969 76.722656 185.230469 77.117188 184.273438 L 78.183594 183.597656 L 81.167969 183.820312 L 82.121094 184.78125 L 81.730469 184.78125 L 81.730469 191.144531 " fill-opacity="1" fill-rule="nonzero"/><path fill="#c9c7c3" d="M 82.121094 198.011719 L 81.730469 198.011719 L 81.730469 184.78125 L 82.121094 184.78125 L 82.121094 198.011719 " fill-opacity="1" fill-rule="nonzero"/><path fill="#565851" d="M 395.546875 153.917969 L 395.546875 191.03125 L 351.671875 191.03125 L 351.671875 153.917969 Z M 395.546875 153.917969 " fill-opacity="1" fill-rule="nonzero"/><path fill="#c9c7c3" d="M 744.523438 120.464844 L 744.523438 262.382812 L 645.074219 262.382812 L 645.074219 120.464844 Z M 744.523438 120.464844 " fill-opacity="1" fill-rule="nonzero"/><path fill="#c9c7c3" d="M 1278.449219 114.890625 L 1278.449219 136.460938 L 1208.753906 136.460938 L 1208.753906 114.890625 Z M 1278.449219 114.890625 " fill-opacity="1" fill-rule="nonzero"/><path fill="#c9c7c3" d="M 1202.566406 114.890625 L 1202.566406 136.460938 L 1132.871094 136.460938 L 1132.871094 114.890625 Z M 1202.566406 114.890625 " fill-opacity="1" fill-rule="nonzero"/><path fill="#565851" d="M 1118.808594 114.890625 L 1132.871094 114.890625 L 1132.871094 136.460938 L 1202.566406 136.460938 L 1202.566406 114.890625 L 1208.753906 114.890625 L 1208.753906 136.460938 L 1278.449219 136.460938 L 1278.449219 114.890625 L 1289.921875 114.890625 L 1289.921875 267.902344 L 1118.808594 267.902344 L 1118.808594 114.890625 " fill-opacity="1" fill-rule="nonzero"/><path fill="#c9c7c3" d="M 1280.136719 182.582031 L 1280.136719 227.015625 L 1130.621094 227.015625 L 1130.621094 182.582031 Z M 1280.136719 182.582031 " fill-opacity="1" fill-rule="nonzero"/><path fill="#c9c7c3" d="M 936.730469 122.382812 L 936.730469 142.65625 L 903.597656 142.65625 L 903.597656 122.382812 Z M 936.730469 122.382812 " fill-opacity="1" fill-rule="nonzero"/><path fill="#c9c7c3" d="M 936.730469 183.710938 L 936.730469 230.394531 L 903.597656 230.394531 L 903.597656 183.710938 Z M 936.730469 183.710938 " fill-opacity="1" fill-rule="nonzero"/><path fill="#565851" d="M 855.785156 230.394531 L 888.410156 230.394531 L 888.410156 183.710938 L 855.785156 183.710938 L 855.785156 142.65625 L 888.410156 142.65625 L 888.410156 122.382812 L 855.785156 122.382812 L 855.785156 115.679688 L 893.753906 115.679688 L 893.753906 267.058594 L 855.785156 267.058594 L 855.785156 230.394531 " fill-opacity="1" fill-rule="nonzero"/><path fill="#565851" d="M 847.347656 230.394531 L 847.347656 264.578125 L 830.527344 264.578125 L 830.527344 230.394531 Z M 847.347656 230.394531 " fill-opacity="1" fill-rule="nonzero"/><path fill="#565851" d="M 847.347656 142.65625 L 847.347656 183.710938 L 830.527344 183.710938 L 830.527344 142.65625 Z M 847.347656 142.65625 " fill-opacity="1" fill-rule="nonzero"/><path fill="#565851" d="M 847.347656 118.214844 L 847.347656 122.382812 L 830.527344 122.382812 L 830.527344 118.214844 Z M 847.347656 118.214844 " fill-opacity="1" fill-rule="nonzero"/><path fill="#c9c7c3" d="M 855.785156 142.65625 L 855.785156 183.710938 L 847.402344 183.710938 L 847.402344 142.65625 Z M 855.785156 142.65625 " fill-opacity="1" fill-rule="nonzero"/><path fill="#c9c7c3" d="M 855.785156 230.394531 L 855.785156 267.058594 L 847.347656 264.578125 L 847.347656 230.394531 L 855.785156 230.394531 " fill-opacity="1" fill-rule="nonzero"/><path fill="#c9c7c3" d="M 847.347656 122.382812 L 847.347656 118.214844 L 855.785156 115.679688 L 855.785156 122.382812 L 847.347656 122.382812 " fill-opacity="1" fill-rule="nonzero"/><path fill="#c9c7c3" d="M 826.027344 122.382812 L 888.410156 122.382812 L 888.410156 142.65625 L 826.027344 142.65625 L 826.027344 122.382812 " fill-opacity="1" fill-rule="nonzero"/><path fill="#c9c7c3" d="M 826.027344 183.710938 L 888.410156 183.710938 L 888.410156 230.394531 L 826.027344 230.394531 L 826.027344 183.710938 " fill-opacity="1" fill-rule="nonzero"/><path fill="#c9c7c3" d="M 821.527344 119.960938 L 798.523438 119.960938 L 798.523438 168.671875 L 814.890625 168.671875 L 814.890625 176.21875 L 797.621094 176.21875 L 797.621094 184.160156 L 821.980469 184.160156 L 821.527344 119.960938 " fill-opacity="1" fill-rule="nonzero"/><path fill="#c9c7c3" d="M 798.183594 193.789062 L 809.828125 193.789062 L 813.765625 197.789062 L 813.765625 219.074219 L 816.128906 221.496094 L 816.128906 229.945312 L 821.078125 229.945312 L 821.078125 234.113281 L 795.035156 234.113281 L 795.035156 227.578125 L 799.085938 223.523438 L 799.085938 200.546875 L 797.453125 198.914062 L 797.453125 193.621094 L 798.183594 193.789062 " fill-opacity="1" fill-rule="nonzero"/><path fill="#c9c7c3" d="M 513.898438 211.8125 C 513.898438 211.8125 519.804688 212.09375 519.804688 206.460938 C 519.804688 200.828125 514.460938 201.675781 514.460938 201.675781 L 514.460938 187.257812 L 522.449219 187.257812 L 522.449219 229.042969 L 513.898438 229.042969 L 513.898438 211.8125 " fill-opacity="1" fill-rule="nonzero"/><path fill="#c9c7c3" d="M 514.011719 148.792969 L 514.011719 142.148438 L 508.667969 142.148438 L 502.871094 144.402344 L 494.996094 144.402344 L 504.390625 138.148438 L 519.636719 138.148438 L 522.449219 140.964844 L 522.449219 152.171875 L 517.328125 152.171875 L 514.011719 148.792969 " fill-opacity="1" fill-rule="nonzero"/><path fill="#565851" d="M 494.996094 238.390625 L 494.996094 144.402344 L 502.871094 144.402344 L 508.667969 142.148438 L 514.011719 142.148438 L 514.011719 148.792969 L 517.328125 152.171875 L 522.449219 152.171875 L 522.449219 187.257812 L 514.460938 187.257812 L 514.460938 201.675781 C 514.460938 201.675781 519.804688 200.828125 519.804688 206.460938 C 519.804688 212.09375 513.898438 211.8125 513.898438 211.8125 L 513.898438 229.042969 L 522.449219 229.042969 L 522.449219 241.828125 L 519.636719 244.644531 L 504.390625 244.644531 L 494.996094 238.390625 " fill-opacity="1" fill-rule="nonzero"/><path fill="#c9c7c3" d="M 602.546875 229.382812 L 552.542969 220.597656 L 552.542969 192.15625 L 558.503906 192.15625 C 561.261719 192.15625 563.566406 189.902344 563.566406 187.089844 C 563.566406 184.328125 561.261719 182.019531 558.503906 182.019531 L 552.542969 182.019531 L 552.542969 157.128906 L 602.546875 145.1875 L 602.546875 229.382812 " fill-opacity="1" fill-rule="nonzero"/><path fill="#565851" d="M 565.421875 248.921875 L 552.542969 248.921875 L 552.542969 220.597656 L 602.546875 229.382812 L 602.546875 145.1875 L 552.542969 157.128906 L 552.542969 133.871094 L 565.421875 133.871094 L 609.296875 120.464844 L 609.296875 262.328125 L 565.421875 248.921875 " fill-opacity="1" fill-rule="nonzero"/><path fill="#565851" d="M 563.566406 187.089844 C 563.566406 189.902344 561.261719 192.15625 558.503906 192.15625 L 552.542969 192.15625 L 552.542969 182.019531 L 558.503906 182.019531 C 561.261719 182.019531 563.566406 184.328125 563.566406 187.089844 " fill-opacity="1" fill-rule="nonzero"/><path fill="#c9c7c3" d="M 638.773438 243.96875 L 638.773438 262.328125 L 609.296875 262.328125 L 609.296875 243.96875 Z M 638.773438 243.96875 " fill-opacity="1" fill-rule="nonzero"/><path fill="#c9c7c3" d="M 645.074219 171.152344 L 645.074219 175.375 L 609.296875 175.375 L 609.296875 171.152344 Z M 645.074219 171.152344 " fill-opacity="1" fill-rule="nonzero"/><path fill="#c9c7c3" d="M 645.074219 120.464844 L 645.074219 171.207031 L 609.296875 171.207031 L 609.296875 120.464844 Z M 645.074219 120.464844 " fill-opacity="1" fill-rule="nonzero"/><path fill="#c9c7c3" d="M 638.773438 262.328125 L 638.773438 243.96875 L 609.296875 243.96875 L 609.296875 175.375 L 645.074219 175.375 L 645.074219 262.328125 L 638.773438 262.328125 " fill-opacity="1" fill-rule="nonzero"/><path fill="#c9c7c3" d="M 1113.746094 117.367188 L 1113.746094 145.46875 L 943.027344 145.46875 L 943.027344 117.367188 Z M 1113.746094 117.367188 " fill-opacity="1" fill-rule="nonzero"/><path fill="#565851" d="M 1113.746094 145.46875 L 1113.746094 151.046875 L 943.027344 151.046875 L 943.027344 145.46875 Z M 1113.746094 145.46875 " fill-opacity="1" fill-rule="nonzero"/><path fill="#c9c7c3" d="M 1113.746094 151.101562 L 1113.746094 251.625 L 943.027344 251.625 L 943.027344 151.101562 Z M 1113.746094 151.101562 " fill-opacity="1" fill-rule="nonzero"/><path fill="#565851" d="M 1113.746094 251.625 L 1113.746094 265.367188 L 943.027344 265.367188 L 943.027344 251.625 Z M 1113.746094 251.625 " fill-opacity="1" fill-rule="nonzero"/><path fill="#c9c7c3" d="M 120.089844 184.78125 L 107.042969 197.84375 L 93.597656 184.441406 L 82.066406 195.984375 L 82.066406 185.230469 L 92.808594 197.28125 L 105.523438 184.554688 L 118.515625 197.5625 L 120.089844 184.78125 " fill-opacity="1" fill-rule="nonzero"/><path fill="#565851" d="M 1346.960938 317.742188 L 1325.472656 278.996094 L 1325.417969 278.828125 L 1369.347656 287.613281 L 1369.347656 315.488281 C 1369.347656 318.023438 1367.324219 320.050781 1364.792969 320.050781 L 1350.953125 320.050781 C 1349.324219 320.050781 1347.746094 319.148438 1346.960938 317.742188 " fill-opacity="1" fill-rule="nonzero"/><path fill="#393a30" d="M 1385.996094 191.199219 L 1385.996094 152.566406 L 1292.453125 158.140625 L 1292.453125 191.199219 L 1385.996094 191.199219 " fill-opacity="1" fill-rule="nonzero"/><path fill="#818574" d="M 1292.453125 191.199219 L 1292.453125 158.140625 L 1292.117188 158.140625 L 1289.921875 159.15625 L 1289.921875 191.199219 L 1292.453125 191.199219 " fill-opacity="1" fill-rule="nonzero"/><path fill="#393a30" d="M 1118.808594 161.914062 L 1118.808594 191.199219 L 1113.746094 191.199219 L 1113.746094 161.914062 Z M 1118.808594 161.914062 " fill-opacity="1" fill-rule="nonzero"/><path fill="#393a30" d="M 1289.921875 191.199219 L 1289.921875 159.15625 L 1283.679688 161.914062 L 1118.808594 161.914062 L 1118.808594 191.199219 L 1130.621094 191.199219 L 1130.621094 182.582031 L 1280.136719 182.582031 L 1280.136719 191.199219 L 1289.921875 191.199219 " fill-opacity="1" fill-rule="nonzero"/><path fill="#818574" d="M 1280.136719 182.582031 L 1280.136719 191.199219 L 1130.621094 191.199219 L 1130.621094 182.582031 Z M 1280.136719 182.582031 " fill-opacity="1" fill-rule="nonzero"/><path fill="#393a30" d="M 943.027344 191.199219 L 943.027344 161.914062 L 908.773438 161.914062 L 905.960938 154.367188 L 898.761719 154.367188 L 898.761719 191.199219 L 903.542969 191.199219 L 903.542969 183.710938 L 936.730469 183.710938 L 936.730469 191.199219 L 943.027344 191.199219 " fill-opacity="1" fill-rule="nonzero"/><path fill="#818574" d="M 898.761719 154.367188 L 898.761719 191.199219 L 893.753906 191.199219 L 893.753906 154.367188 Z M 898.761719 154.367188 " fill-opacity="1" fill-rule="nonzero"/><path fill="#818574" d="M 830.527344 183.710938 L 830.527344 155.609375 L 823.105469 148.738281 L 821.753906 148.738281 L 821.980469 184.160156 L 821.246094 184.160156 L 821.246094 191.199219 L 826.027344 191.199219 L 826.027344 183.710938 L 830.527344 183.710938 " fill-opacity="1" fill-rule="nonzero"/><path fill="#393a30" d="M 761.398438 191.199219 L 761.398438 150.144531 L 746.773438 156.285156 L 744.523438 156.285156 L 744.523438 191.199219 L 761.398438 191.199219 " fill-opacity="1" fill-rule="nonzero"/><path fill="#818574" d="M 821.246094 191.199219 L 821.246094 184.160156 L 797.621094 184.160156 L 797.621094 176.21875 L 814.890625 176.21875 L 814.890625 168.671875 L 798.523438 168.671875 L 798.523438 148.738281 L 764.714844 148.738281 L 761.398438 150.144531 L 761.398438 191.199219 L 821.246094 191.199219 " fill-opacity="1" fill-rule="nonzero"/><path fill="#818574" d="M 744.523438 191.199219 L 744.523438 156.285156 L 645.074219 156.285156 L 645.074219 191.199219 L 744.523438 191.199219 " fill-opacity="1" fill-rule="nonzero"/><path fill="#818574" d="M 936.730469 183.710938 L 936.730469 191.199219 L 903.597656 191.199219 L 903.597656 183.710938 Z M 936.730469 183.710938 " fill-opacity="1" fill-rule="nonzero"/><path fill="#393a30" d="M 893.753906 191.199219 L 893.753906 154.367188 L 864.503906 154.367188 L 855.785156 157.464844 L 855.785156 183.710938 L 888.410156 183.710938 L 888.410156 191.199219 L 893.753906 191.199219 " fill-opacity="1" fill-rule="nonzero"/><path fill="#393a30" d="M 847.347656 183.710938 L 847.347656 160.394531 L 845.714844 161.015625 L 836.265625 161.015625 L 830.527344 155.609375 L 830.527344 183.710938 L 847.347656 183.710938 " fill-opacity="1" fill-rule="nonzero"/><path fill="#818574" d="M 855.785156 183.710938 L 855.785156 157.464844 L 847.347656 160.394531 L 847.347656 183.710938 L 855.785156 183.710938 " fill-opacity="1" fill-rule="nonzero"/><path fill="#818574" d="M 888.410156 191.199219 L 888.410156 183.710938 L 826.027344 183.710938 L 826.027344 191.199219 L 888.410156 191.199219 " fill-opacity="1" fill-rule="nonzero"/><path fill="#393a30" d="M 552.542969 191.199219 L 552.542969 167.492188 L 545.230469 170.417969 L 533.023438 170.417969 L 527.339844 164.789062 L 522.449219 164.789062 L 522.449219 191.199219 L 552.542969 191.199219 " fill-opacity="1" fill-rule="nonzero"/><path fill="#a8ac98" d="M 138.824219 170.8125 L 138.824219 170.757812 L 120.035156 184.78125 L 120.089844 184.78125 L 138.824219 170.8125 " fill-opacity="1" fill-rule="nonzero"/><path fill="#818574" d="M 494.996094 191.199219 L 494.996094 169.460938 L 395.546875 169.460938 L 395.546875 191.03125 L 351.671875 191.03125 L 351.671875 169.460938 L 337.105469 169.460938 L 207.109375 177.964844 L 200.191406 177.964844 L 200.191406 191.199219 L 494.996094 191.199219 " fill-opacity="1" fill-rule="nonzero"/><path fill="#43493f" d="M 200.191406 177.964844 L 200.191406 191.199219 L 188.605469 191.199219 L 188.605469 177.964844 Z M 200.191406 177.964844 " fill-opacity="1" fill-rule="nonzero"/><path fill="#818574" d="M 120.089844 191.199219 L 120.089844 184.78125 L 119.304688 191.199219 L 120.089844 191.199219 M 120.089844 184.78125 L 105.746094 184.78125 L 112.160156 191.199219 L 113.679688 191.199219 L 120.089844 184.78125 " fill-opacity="1" fill-rule="nonzero"/><path fill="#818574" d="M 188.605469 191.199219 L 188.605469 177.964844 L 149.679688 177.964844 L 138.824219 170.8125 L 120.089844 184.78125 L 120.089844 191.199219 L 188.605469 191.199219 " fill-opacity="1" fill-rule="nonzero"/><path fill="#393a30" d="M 395.546875 169.460938 L 395.546875 191.03125 L 351.671875 191.03125 L 351.671875 169.460938 Z M 395.546875 169.460938 " fill-opacity="1" fill-rule="nonzero"/><path fill="#818574" d="M 821.980469 184.160156 L 821.753906 148.738281 L 798.523438 148.738281 L 798.523438 168.671875 L 814.890625 168.671875 L 814.890625 176.21875 L 797.621094 176.21875 L 797.621094 184.160156 L 821.980469 184.160156 " fill-opacity="1" fill-rule="nonzero"/><path fill="#818574" d="M 522.449219 187.257812 L 522.449219 191.199219 L 514.460938 191.199219 L 514.460938 187.257812 Z M 522.449219 187.257812 " fill-opacity="1" fill-rule="nonzero"/><path fill="#393a30" d="M 522.449219 187.257812 L 522.449219 164.789062 L 505.683594 164.789062 L 495.335938 169.460938 L 494.996094 169.460938 L 494.996094 191.199219 L 514.460938 191.199219 L 514.460938 187.257812 L 522.449219 187.257812 " fill-opacity="1" fill-rule="nonzero"/><path fill="#818574" d="M 602.546875 191.199219 L 602.546875 158.988281 L 574.421875 164.789062 L 559.347656 164.789062 L 552.542969 167.492188 L 552.542969 182.019531 L 558.503906 182.019531 C 561.261719 182.019531 563.566406 184.328125 563.566406 187.089844 C 563.566406 188.777344 562.722656 190.242188 561.484375 191.199219 L 602.546875 191.199219 " fill-opacity="1" fill-rule="nonzero"/><path fill="#393a30" d="M 609.296875 191.199219 L 609.296875 157.636719 L 602.546875 158.988281 L 602.546875 191.199219 L 609.296875 191.199219 " fill-opacity="1" fill-rule="nonzero"/><path fill="#393a30" d="M 563.566406 187.089844 C 563.566406 184.328125 561.261719 182.019531 558.503906 182.019531 L 552.542969 182.019531 L 552.542969 191.199219 L 561.484375 191.199219 C 562.722656 190.242188 563.566406 188.777344 563.566406 187.089844 " fill-opacity="1" fill-rule="nonzero"/><path fill="#818574" d="M 645.074219 171.152344 L 645.074219 175.375 L 609.296875 175.375 L 609.296875 171.152344 Z M 645.074219 171.152344 " fill-opacity="1" fill-rule="nonzero"/><path fill="#818574" d="M 645.074219 171.152344 L 645.074219 156.285156 L 615.878906 156.285156 L 609.296875 157.636719 L 609.296875 171.152344 L 645.074219 171.152344 " fill-opacity="1" fill-rule="nonzero"/><path fill="#818574" d="M 645.074219 175.375 L 645.074219 191.199219 L 609.296875 191.199219 L 609.296875 175.375 Z M 645.074219 175.375 " fill-opacity="1" fill-rule="nonzero"/><path fill="#a8ac98" d="M 105.523438 184.554688 L 105.242188 184.78125 L 105.296875 184.78125 L 105.523438 184.554688 " fill-opacity="1" fill-rule="nonzero"/><path fill="#818574" d="M 105.296875 184.78125 L 93.992188 184.78125 L 99.617188 190.46875 L 105.296875 184.78125 M 100.347656 191.199219 L 99.617188 190.46875 L 98.886719 191.199219 L 100.347656 191.199219 " fill-opacity="1" fill-rule="nonzero"/><path fill="#a8ac98" d="M 93.597656 184.441406 L 93.542969 184.441406 L 93.203125 184.78125 L 93.597656 184.441406 M 78.183594 183.597656 L 78.128906 183.597656 L 77.058594 184.273438 C 76.667969 185.230469 75.597656 186.917969 72.671875 187.257812 C 71.324219 187.371094 63.730469 187.425781 54.222656 187.425781 C 63.730469 187.425781 71.324219 187.371094 72.730469 187.257812 C 75.597656 186.917969 76.722656 185.230469 77.117188 184.273438 L 78.183594 183.597656 M 7.140625 187.199219 C 4.949219 187.199219 -0.00390625 187.59375 -0.00390625 191.199219 C 0.0546875 191.199219 0.0546875 191.199219 0.0546875 191.199219 C 0.0546875 187.59375 4.949219 187.199219 7.140625 187.199219 " fill-opacity="1" fill-rule="nonzero"/><path fill="#818574" d="M 93.203125 184.78125 L 82.121094 184.78125 L 82.121094 185.285156 L 87.128906 190.917969 L 93.203125 184.78125 " fill-opacity="1" fill-rule="nonzero"/><path fill="#818574" d="M 82.121094 184.78125 L 81.109375 183.820312 L 78.183594 183.597656 L 77.117188 184.273438 C 76.722656 185.230469 75.597656 186.917969 72.730469 187.257812 C 71.324219 187.371094 63.730469 187.425781 54.222656 187.425781 C 35.042969 187.425781 8.097656 187.257812 8.097656 187.257812 C 8.097656 187.257812 7.703125 187.199219 7.140625 187.199219 C 4.949219 187.199219 0.0546875 187.59375 0.0546875 191.199219 L 81.730469 191.199219 L 81.730469 184.78125 L 82.121094 184.78125 " fill-opacity="1" fill-rule="nonzero"/><path fill="#818574" d="M 82.121094 185.285156 L 82.121094 184.78125 L 81.730469 184.78125 L 81.730469 191.199219 L 82.066406 191.199219 L 82.066406 185.230469 L 82.121094 185.285156 " fill-opacity="1" fill-rule="nonzero"/><path fill="#818574" d="M 87.355469 191.199219 L 87.128906 190.917969 L 86.847656 191.199219 L 87.355469 191.199219 " fill-opacity="1" fill-rule="nonzero"/><path fill="#818574" d="M 1113.746094 161.914062 L 1113.746094 191.199219 L 943.027344 191.199219 L 943.027344 161.914062 Z M 1113.746094 161.914062 " fill-opacity="1" fill-rule="nonzero"/><path fill="#818574" d="M 120.089844 184.78125 L 113.679688 191.199219 L 119.304688 191.199219 L 120.089844 184.78125 M 112.160156 191.199219 L 105.523438 184.554688 L 99.617188 190.46875 L 100.347656 191.199219 L 112.160156 191.199219 M 99.617188 190.46875 L 93.992188 184.78125 L 93.933594 184.78125 L 93.597656 184.441406 L 93.203125 184.78125 L 87.128906 190.917969 L 87.355469 191.199219 L 98.886719 191.199219 L 99.617188 190.46875 M 87.128906 190.917969 L 82.121094 185.285156 L 82.066406 185.230469 L 82.066406 191.199219 L 86.847656 191.199219 L 87.128906 190.917969 " fill-opacity="1" fill-rule="nonzero"/><path fill="#43453a" d="M 1385.996094 152.566406 L 1385.996094 109.878906 L 1292.453125 122.269531 L 1292.453125 158.140625 L 1385.996094 152.566406 " fill-opacity="1" fill-rule="nonzero"/><path fill="#9a9e8a" d="M 1292.453125 158.140625 L 1292.453125 122.269531 L 1292.117188 122.324219 L 1289.921875 124.859375 L 1289.921875 159.15625 L 1292.117188 158.140625 L 1292.453125 158.140625 " fill-opacity="1" fill-rule="nonzero"/><path fill="#43453a" d="M 943.027344 161.914062 L 943.027344 137.417969 L 936.730469 137.417969 L 936.730469 142.65625 L 903.542969 142.65625 L 903.542969 133.136719 L 902.246094 131.730469 L 898.761719 131.730469 L 898.761719 154.367188 L 905.960938 154.367188 L 908.773438 161.914062 L 943.027344 161.914062 " fill-opacity="1" fill-rule="nonzero"/><path fill="#9a9e8a" d="M 898.761719 131.730469 L 898.761719 154.367188 L 893.753906 154.367188 L 893.753906 131.730469 Z M 898.761719 131.730469 " fill-opacity="1" fill-rule="nonzero"/><path fill="#43453a" d="M 1118.808594 161.914062 L 1118.808594 129.871094 L 1116.953125 129.871094 L 1113.746094 132.011719 L 1113.746094 161.914062 L 1118.808594 161.914062 " fill-opacity="1" fill-rule="nonzero"/><path fill="#9a9e8a" d="M 830.527344 155.609375 L 830.527344 142.65625 L 826.027344 142.65625 L 826.027344 131.277344 L 822.148438 127.957031 L 821.585938 127.957031 L 821.753906 148.738281 L 823.105469 148.738281 L 830.527344 155.609375 " fill-opacity="1" fill-rule="nonzero"/><path fill="#9a9e8a" d="M 1278.449219 129.871094 L 1278.449219 136.460938 L 1208.753906 136.460938 L 1208.753906 129.871094 Z M 1278.449219 129.871094 " fill-opacity="1" fill-rule="nonzero"/><path fill="#9a9e8a" d="M 1202.566406 129.871094 L 1202.566406 136.460938 L 1132.871094 136.460938 L 1132.871094 129.871094 Z M 1202.566406 129.871094 " fill-opacity="1" fill-rule="nonzero"/><path fill="#43453a" d="M 1289.921875 159.15625 L 1289.921875 124.859375 L 1285.535156 129.871094 L 1278.449219 129.871094 L 1278.449219 136.460938 L 1208.753906 136.460938 L 1208.753906 129.871094 L 1202.566406 129.871094 L 1202.566406 136.460938 L 1132.871094 136.460938 L 1132.871094 129.871094 L 1118.808594 129.871094 L 1118.808594 161.914062 L 1283.679688 161.914062 L 1289.921875 159.15625 " fill-opacity="1" fill-rule="nonzero"/><path fill="#9a9e8a" d="M 936.730469 142.65625 L 936.730469 137.417969 L 907.871094 137.417969 L 903.542969 133.136719 L 903.542969 142.65625 L 936.730469 142.65625 " fill-opacity="1" fill-rule="nonzero"/><path fill="#43453a" d="M 893.753906 154.367188 L 893.753906 131.730469 L 888.410156 131.730469 L 888.410156 142.65625 L 855.785156 142.65625 L 855.785156 157.464844 L 864.503906 154.367188 L 893.753906 154.367188 " fill-opacity="1" fill-rule="nonzero"/><path fill="#43453a" d="M 847.347656 160.394531 L 847.347656 142.65625 L 830.527344 142.65625 L 830.527344 155.609375 L 836.265625 161.015625 L 845.714844 161.015625 L 847.347656 160.394531 " fill-opacity="1" fill-rule="nonzero"/><path fill="#9a9e8a" d="M 855.785156 157.464844 L 855.785156 142.65625 L 847.347656 142.65625 L 847.347656 160.394531 L 855.785156 157.464844 " fill-opacity="1" fill-rule="nonzero"/><path fill="#9a9e8a" d="M 888.410156 142.65625 L 888.410156 131.730469 L 860.792969 131.730469 L 843.804688 139.332031 L 835.367188 139.332031 L 826.027344 131.277344 L 826.027344 142.65625 L 888.410156 142.65625 " fill-opacity="1" fill-rule="nonzero"/><path fill="#43453a" d="M 761.398438 150.144531 L 761.398438 129.757812 L 744.523438 136.796875 L 744.523438 156.285156 L 746.773438 156.285156 L 761.398438 150.144531 " fill-opacity="1" fill-rule="nonzero"/><path fill="#9a9e8a" d="M 798.523438 148.738281 L 798.523438 127.957031 L 765.617188 127.957031 L 761.398438 129.757812 L 761.398438 150.144531 L 764.714844 148.738281 L 798.523438 148.738281 " fill-opacity="1" fill-rule="nonzero"/><path fill="#9a9e8a" d="M 744.523438 156.285156 L 744.523438 136.796875 L 743.003906 137.417969 L 645.074219 137.417969 L 645.074219 156.285156 L 744.523438 156.285156 " fill-opacity="1" fill-rule="nonzero"/><path fill="#9a9e8a" d="M 821.753906 148.738281 L 821.585938 127.957031 L 798.523438 127.957031 L 798.523438 148.738281 L 821.753906 148.738281 " fill-opacity="1" fill-rule="nonzero"/><path fill="#43453a" d="M 552.542969 167.492188 L 552.542969 148.738281 L 550.910156 148.738281 L 532.066406 155.324219 L 525.484375 155.324219 L 522.449219 152.285156 L 522.449219 164.789062 L 527.339844 164.789062 L 533.023438 170.417969 L 545.230469 170.417969 L 552.542969 167.492188 " fill-opacity="1" fill-rule="nonzero"/><path fill="#c8cdb3" d="M 202.328125 170.363281 L 200.191406 170.757812 L 202.328125 170.363281 M 138.878906 170.757812 L 138.824219 170.757812 L 138.824219 170.8125 L 138.878906 170.757812 " fill-opacity="1" fill-rule="nonzero"/><path fill="#9a9e8a" d="M 494.996094 169.460938 L 494.996094 156.789062 L 494.378906 157.242188 L 395.546875 157.242188 L 395.546875 169.460938 L 494.996094 169.460938 M 351.671875 169.460938 L 351.671875 157.242188 L 336.148438 157.242188 L 204.296875 170.417969 L 204.074219 170.023438 L 202.328125 170.363281 L 200.191406 170.757812 L 200.191406 177.964844 L 207.109375 177.964844 L 337.105469 169.460938 L 351.671875 169.460938 " fill-opacity="1" fill-rule="nonzero"/><path fill="#50574a" d="M 200.191406 177.964844 L 200.191406 170.757812 L 188.605469 170.757812 L 188.605469 177.964844 L 200.191406 177.964844 " fill-opacity="1" fill-rule="nonzero"/><path fill="#9a9e8a" d="M 188.605469 177.964844 L 188.605469 170.757812 L 138.878906 170.757812 L 138.824219 170.8125 L 149.679688 177.964844 L 188.605469 177.964844 " fill-opacity="1" fill-rule="nonzero"/><path fill="#43453a" d="M 395.546875 157.242188 L 395.546875 169.460938 L 351.671875 169.460938 L 351.671875 157.242188 Z M 395.546875 157.242188 " fill-opacity="1" fill-rule="nonzero"/><path fill="#9a9e8a" d="M 522.277344 152.171875 L 520.761719 150.59375 L 515.808594 150.59375 L 517.328125 152.171875 L 522.277344 152.171875 " fill-opacity="1" fill-rule="nonzero"/><path fill="#43453a" d="M 522.449219 164.789062 L 522.449219 152.285156 L 522.277344 152.171875 L 517.328125 152.171875 L 515.808594 150.59375 L 504.730469 150.59375 L 494.996094 156.789062 L 494.996094 169.460938 L 495.335938 169.460938 L 505.683594 164.789062 L 522.449219 164.789062 " fill-opacity="1" fill-rule="nonzero"/><path fill="#9a9e8a" d="M 602.546875 158.988281 L 602.546875 145.1875 L 552.542969 157.128906 L 552.542969 167.492188 L 559.347656 164.789062 L 574.421875 164.789062 L 602.546875 158.988281 " fill-opacity="1" fill-rule="nonzero"/><path fill="#43453a" d="M 609.296875 157.636719 L 609.296875 137.925781 L 569.753906 148.738281 L 552.542969 148.738281 L 552.542969 157.128906 L 602.546875 145.1875 L 602.546875 158.988281 L 609.296875 157.636719 " fill-opacity="1" fill-rule="nonzero"/><path fill="#9a9e8a" d="M 645.074219 156.285156 L 645.074219 137.417969 L 611.210938 137.417969 L 609.296875 137.925781 L 609.296875 157.636719 L 615.878906 156.285156 L 645.074219 156.285156 " fill-opacity="1" fill-rule="nonzero"/><path fill="#9a9e8a" d="M 1113.746094 145.46875 L 1113.746094 132.011719 L 1105.648438 137.417969 L 943.027344 137.417969 L 943.027344 145.46875 L 1113.746094 145.46875 " fill-opacity="1" fill-rule="nonzero"/><path fill="#43453a" d="M 1113.746094 145.46875 L 1113.746094 151.046875 L 943.027344 151.046875 L 943.027344 145.46875 Z M 1113.746094 145.46875 " fill-opacity="1" fill-rule="nonzero"/><path fill="#9a9e8a" d="M 1113.746094 151.101562 L 1113.746094 161.914062 L 943.027344 161.914062 L 943.027344 151.101562 Z M 1113.746094 151.101562 " fill-opacity="1" fill-rule="nonzero"/><path fill="#a8ac98" d="M 1376.773438 93.773438 L 1376.714844 93.773438 L 1369.402344 95.238281 L 1325.417969 104.023438 L 1325.527344 103.851562 L 1347.015625 65.109375 C 1347.804688 63.699219 1349.378906 62.796875 1351.011719 62.796875 L 1350.953125 62.796875 C 1349.324219 62.796875 1347.746094 63.699219 1346.960938 65.109375 L 1325.472656 103.851562 L 1325.417969 104.023438 L 1292.453125 110.667969 L 1289.921875 114.890625 L 1292.453125 110.667969 L 1325.417969 104.023438 L 1369.402344 95.238281 L 1376.773438 93.773438 M 1118.808594 114.890625 L 1113.746094 117.367188 L 1118.808594 114.890625 " fill-opacity="1" fill-rule="nonzero"/><path fill="#393a30" d="M 1369.402344 95.238281 L 1369.347656 95.238281 L 1369.347656 67.359375 C 1369.347656 64.824219 1367.324219 62.796875 1364.792969 62.796875 L 1351.011719 62.796875 C 1349.378906 62.796875 1347.804688 63.699219 1347.015625 65.109375 L 1325.527344 103.851562 L 1325.417969 104.023438 L 1369.402344 95.238281 " fill-opacity="1" fill-rule="nonzero"/><path fill="#393a30" d="M 1385.996094 109.878906 L 1385.996094 93.773438 L 1376.773438 93.773438 L 1369.402344 95.238281 L 1325.417969 104.023438 L 1292.453125 110.667969 L 1292.453125 122.269531 L 1385.996094 109.878906 " fill-opacity="1" fill-rule="nonzero"/><path fill="#818574" d="M 1292.453125 122.269531 L 1292.453125 110.667969 L 1289.921875 114.890625 L 1289.921875 124.859375 L 1292.117188 122.324219 L 1292.453125 122.269531 " fill-opacity="1" fill-rule="nonzero"/><path fill="#393a30" d="M 1118.808594 129.871094 L 1118.808594 114.890625 L 1113.746094 117.367188 L 1113.746094 132.011719 L 1116.953125 129.871094 L 1118.808594 129.871094 " fill-opacity="1" fill-rule="nonzero"/><path fill="#818574" d="M 1278.449219 129.871094 L 1278.449219 114.890625 L 1208.753906 114.890625 L 1208.753906 129.871094 L 1278.449219 129.871094 " fill-opacity="1" fill-rule="nonzero"/><path fill="#818574" d="M 1202.566406 129.871094 L 1202.566406 114.890625 L 1132.871094 114.890625 L 1132.871094 129.871094 L 1202.566406 129.871094 " fill-opacity="1" fill-rule="nonzero"/><path fill="#393a30" d="M 1289.921875 124.859375 L 1289.921875 114.890625 L 1278.449219 114.890625 L 1278.449219 129.871094 L 1285.535156 129.871094 L 1289.921875 124.859375 M 1208.753906 129.871094 L 1208.753906 114.890625 L 1202.566406 114.890625 L 1202.566406 129.871094 L 1208.753906 129.871094 M 1132.871094 129.871094 L 1132.871094 114.890625 L 1118.808594 114.890625 L 1118.808594 129.871094 L 1132.871094 129.871094 " fill-opacity="1" fill-rule="nonzero"/><path fill="#a8ac98" d="M 888.410156 122.382812 L 847.347656 122.382812 L 847.347656 118.214844 L 855.785156 115.679688 L 855.730469 115.679688 L 847.347656 118.214844 L 847.347656 122.382812 L 830.527344 122.382812 L 830.527344 118.214844 L 830.527344 122.382812 L 888.410156 122.382812 M 761.398438 114.046875 L 761.339844 114.046875 L 744.523438 120.464844 L 761.398438 114.046875 " fill-opacity="1" fill-rule="nonzero"/><path fill="#393a30" d="M 943.027344 137.417969 L 943.027344 117.367188 L 898.761719 117.367188 L 898.761719 131.730469 L 902.246094 131.730469 L 903.542969 133.136719 L 903.542969 122.382812 L 936.730469 122.382812 L 936.730469 137.417969 L 943.027344 137.417969 " fill-opacity="1" fill-rule="nonzero"/><path fill="#818574" d="M 898.761719 131.730469 L 898.761719 117.367188 L 893.753906 115.734375 L 893.753906 131.730469 L 898.761719 131.730469 " fill-opacity="1" fill-rule="nonzero"/><path fill="#818574" d="M 830.527344 122.382812 L 830.527344 118.214844 L 830.472656 118.214844 L 821.246094 114.046875 L 821.246094 119.960938 L 821.527344 119.960938 L 821.585938 127.957031 L 822.148438 127.957031 L 826.027344 131.277344 L 826.027344 122.382812 L 830.527344 122.382812 " fill-opacity="1" fill-rule="nonzero"/><path fill="#393a30" d="M 761.398438 129.757812 L 761.398438 114.046875 L 744.523438 120.464844 L 744.523438 136.796875 L 761.398438 129.757812 " fill-opacity="1" fill-rule="nonzero"/><path fill="#818574" d="M 821.246094 119.960938 L 821.246094 114.046875 L 761.398438 114.046875 L 761.398438 129.757812 L 765.617188 127.957031 L 798.523438 127.957031 L 798.523438 119.960938 L 821.246094 119.960938 " fill-opacity="1" fill-rule="nonzero"/><path fill="#818574" d="M 744.523438 136.796875 L 744.523438 120.464844 L 645.074219 120.464844 L 645.074219 137.417969 L 743.003906 137.417969 L 744.523438 136.796875 " fill-opacity="1" fill-rule="nonzero"/><path fill="#818574" d="M 936.730469 137.417969 L 936.730469 122.382812 L 903.542969 122.382812 L 903.542969 133.136719 L 907.871094 137.417969 L 936.730469 137.417969 " fill-opacity="1" fill-rule="nonzero"/><path fill="#393a30" d="M 893.753906 131.730469 L 893.753906 115.734375 L 893.699219 115.679688 L 855.785156 115.679688 L 855.785156 122.382812 L 888.410156 122.382812 L 888.410156 131.730469 L 893.753906 131.730469 " fill-opacity="1" fill-rule="nonzero"/><path fill="#393a30" d="M 847.347656 122.382812 L 847.347656 118.214844 L 830.527344 118.214844 L 830.527344 122.382812 L 847.347656 122.382812 " fill-opacity="1" fill-rule="nonzero"/><path fill="#818574" d="M 855.785156 122.382812 L 855.785156 115.679688 L 847.347656 118.214844 L 847.347656 122.382812 L 855.785156 122.382812 " fill-opacity="1" fill-rule="nonzero"/><path fill="#818574" d="M 888.410156 131.730469 L 888.410156 122.382812 L 826.027344 122.382812 L 826.027344 131.277344 L 835.367188 139.332031 L 843.804688 139.332031 L 860.792969 131.730469 L 888.410156 131.730469 " fill-opacity="1" fill-rule="nonzero"/><path fill="#818574" d="M 821.585938 127.957031 L 821.527344 119.960938 L 798.523438 119.960938 L 798.523438 127.957031 L 821.585938 127.957031 " fill-opacity="1" fill-rule="nonzero"/><path fill="#a8ac98" d="M 609.296875 120.464844 L 609.242188 120.464844 L 565.367188 133.871094 L 565.421875 133.871094 L 609.296875 120.464844 M 552.542969 133.871094 L 552.484375 133.871094 L 536.453125 140.964844 L 536.511719 140.964844 L 552.542969 133.871094 " fill-opacity="1" fill-rule="nonzero"/><path fill="#393a30" d="M 552.542969 148.738281 L 552.542969 133.871094 L 536.511719 140.964844 L 522.449219 140.964844 L 522.449219 152.285156 L 525.484375 155.324219 L 532.066406 155.324219 L 550.910156 148.738281 L 552.542969 148.738281 " fill-opacity="1" fill-rule="nonzero"/><path fill="#a8ac98" d="M 514.011719 142.148438 L 508.667969 142.148438 L 502.871094 144.402344 L 494.996094 144.402344 L 504.390625 138.148438 L 504.335938 138.148438 L 494.941406 144.402344 L 494.996094 144.402344 L 494.996094 156.789062 L 494.996094 144.402344 L 502.871094 144.402344 L 508.667969 142.148438 L 514.011719 142.148438 M 338.171875 144.402344 L 251.433594 160.957031 L 338.171875 144.402344 " fill-opacity="1" fill-rule="nonzero"/><path fill="#818574" d="M 494.996094 156.789062 L 494.996094 144.402344 L 338.171875 144.402344 L 251.433594 160.957031 L 204.074219 170.023438 L 204.296875 170.417969 L 336.148438 157.242188 L 351.671875 157.242188 L 351.671875 153.917969 L 395.546875 153.917969 L 395.546875 157.242188 L 494.378906 157.242188 L 494.996094 156.789062 " fill-opacity="1" fill-rule="nonzero"/><path fill="#393a30" d="M 395.546875 153.917969 L 395.546875 157.242188 L 351.671875 157.242188 L 351.671875 153.917969 Z M 395.546875 153.917969 " fill-opacity="1" fill-rule="nonzero"/><path fill="#818574" d="M 522.449219 152.171875 L 522.449219 140.964844 L 522.390625 140.964844 L 519.578125 138.148438 L 504.390625 138.148438 L 494.996094 144.402344 L 502.871094 144.402344 L 508.667969 142.148438 L 514.011719 142.148438 L 514.011719 148.792969 L 515.808594 150.59375 L 520.761719 150.59375 L 522.277344 152.171875 L 522.449219 152.171875 " fill-opacity="1" fill-rule="nonzero"/><path fill="#393a30" d="M 522.449219 152.285156 L 522.449219 152.171875 L 522.277344 152.171875 L 522.449219 152.285156 M 515.808594 150.59375 L 514.011719 148.792969 L 514.011719 142.148438 L 508.667969 142.148438 L 502.871094 144.402344 L 494.996094 144.402344 L 494.996094 156.789062 L 504.730469 150.59375 L 515.808594 150.59375 " fill-opacity="1" fill-rule="nonzero"/><path fill="#393a30" d="M 609.296875 137.925781 L 609.296875 120.464844 L 565.421875 133.871094 L 552.542969 133.871094 L 552.542969 148.738281 L 569.753906 148.738281 L 609.296875 137.925781 " fill-opacity="1" fill-rule="nonzero"/><path fill="#818574" d="M 645.074219 137.417969 L 645.074219 120.464844 L 609.296875 120.464844 L 609.296875 137.925781 L 611.210938 137.417969 L 645.074219 137.417969 " fill-opacity="1" fill-rule="nonzero"/><path fill="#818574" d="M 1113.746094 132.011719 L 1113.746094 117.367188 L 943.027344 117.367188 L 943.027344 137.417969 L 1105.648438 137.417969 L 1113.746094 132.011719 " fill-opacity="1" fill-rule="nonzero"/><path fill="#6b7065" d="M 1385.996094 289.019531 L 1376.773438 289.019531 L 1292.453125 272.125 L 1289.921875 267.902344 L 1118.808594 267.902344 L 1118.808594 252.527344 L 1118.808594 267.902344 L 1113.746094 265.425781 L 943.027344 265.425781 L 943.027344 251.625 L 1113.746094 251.625 L 943.027344 251.625 L 943.027344 244.980469 L 943.027344 265.425781 L 898.761719 265.425781 L 1113.746094 265.425781 L 1118.808594 267.902344 L 1289.921875 267.902344 L 1292.453125 272.125 L 1376.714844 289.019531 L 1385.996094 289.019531 M 893.699219 267.058594 L 855.785156 267.058594 L 847.347656 264.578125 L 847.347656 244.699219 L 847.347656 264.578125 L 830.527344 264.578125 L 830.527344 247.234375 L 830.527344 264.578125 L 847.347656 264.578125 L 855.730469 267.058594 L 893.699219 267.058594 M 821.191406 268.746094 L 761.398438 268.746094 L 761.398438 252.640625 L 761.398438 268.746094 L 744.523438 262.328125 L 638.773438 262.328125 L 638.773438 244.980469 L 638.773438 262.328125 L 609.296875 262.328125 L 609.296875 244.472656 L 609.296875 262.328125 L 565.421875 248.921875 L 552.542969 248.921875 L 552.542969 233.660156 L 552.542969 248.921875 L 536.511719 241.828125 L 522.449219 241.828125 L 536.453125 241.828125 L 552.484375 248.921875 L 565.367188 248.921875 L 609.242188 262.328125 L 744.523438 262.328125 L 761.339844 268.746094 L 821.191406 268.746094 " fill-opacity="1" fill-rule="nonzero"/><path fill="#272721" d="M 552.542969 248.921875 L 552.542969 233.660156 L 550.910156 233.660156 L 532.066406 227.074219 L 525.484375 227.074219 L 522.449219 230.113281 L 522.449219 241.828125 L 536.511719 241.828125 L 552.542969 248.921875 " fill-opacity="1" fill-rule="nonzero"/><path fill="#272721" d="M 1385.996094 289.019531 L 1385.996094 272.464844 L 1292.453125 260.128906 L 1292.453125 272.125 L 1376.773438 289.019531 L 1385.996094 289.019531 " fill-opacity="1" fill-rule="nonzero"/><path fill="#53554c" d="M 1292.453125 272.125 L 1292.453125 260.128906 L 1292.117188 260.074219 L 1289.921875 257.539062 L 1289.921875 267.902344 L 1292.453125 272.125 " fill-opacity="1" fill-rule="nonzero"/><path fill="#272721" d="M 943.027344 265.425781 L 943.027344 244.980469 L 907.871094 244.980469 L 902.246094 250.613281 L 898.761719 250.613281 L 898.761719 265.425781 L 943.027344 265.425781 " fill-opacity="1" fill-rule="nonzero"/><path fill="#53554c" d="M 898.761719 265.425781 L 898.761719 250.613281 L 893.753906 250.613281 L 893.753906 267.058594 L 898.761719 265.425781 " fill-opacity="1" fill-rule="nonzero"/><path fill="#272721" d="M 1118.808594 267.902344 L 1118.808594 252.527344 L 1116.953125 252.527344 L 1113.746094 250.386719 L 1113.746094 265.425781 L 1118.808594 267.902344 " fill-opacity="1" fill-rule="nonzero"/><path fill="#53554c" d="M 830.527344 264.578125 L 830.527344 247.234375 L 822.148438 254.386719 L 821.246094 254.386719 L 821.246094 268.746094 L 830.472656 264.578125 L 830.527344 264.578125 " fill-opacity="1" fill-rule="nonzero"/><path fill="#272721" d="M 761.398438 268.746094 L 761.398438 252.640625 L 744.523438 245.601562 L 744.523438 262.328125 L 761.398438 268.746094 " fill-opacity="1" fill-rule="nonzero"/><path fill="#53554c" d="M 821.246094 268.746094 L 821.246094 254.386719 L 765.617188 254.386719 L 761.398438 252.640625 L 761.398438 268.746094 L 821.246094 268.746094 " fill-opacity="1" fill-rule="nonzero"/><path fill="#53554c" d="M 744.523438 262.328125 L 744.523438 245.601562 L 743.003906 244.980469 L 645.074219 244.980469 L 645.074219 262.328125 L 744.523438 262.328125 " fill-opacity="1" fill-rule="nonzero"/><path fill="#272721" d="M 1289.921875 267.902344 L 1289.921875 257.539062 L 1285.535156 252.527344 L 1118.808594 252.527344 L 1118.808594 267.902344 L 1289.921875 267.902344 " fill-opacity="1" fill-rule="nonzero"/><path fill="#272721" d="M 893.753906 267.058594 L 893.753906 250.613281 L 860.792969 250.613281 L 855.785156 248.417969 L 855.785156 267.058594 L 893.753906 267.058594 " fill-opacity="1" fill-rule="nonzero"/><path fill="#272721" d="M 847.347656 264.578125 L 847.347656 244.699219 L 843.804688 243.121094 L 835.367188 243.121094 L 830.527344 247.234375 L 830.527344 264.578125 L 847.347656 264.578125 " fill-opacity="1" fill-rule="nonzero"/><path fill="#53554c" d="M 855.785156 267.058594 L 855.785156 248.417969 L 847.347656 244.699219 L 847.347656 264.578125 L 855.785156 267.058594 " fill-opacity="1" fill-rule="nonzero"/><path fill="#6b7065" d="M 519.578125 244.644531 L 504.390625 244.644531 L 494.996094 238.390625 L 494.996094 225.550781 L 494.996094 238.390625 L 338.171875 238.390625 L 203.847656 212.710938 L 338.171875 238.390625 L 494.941406 238.390625 L 504.335938 244.644531 L 519.578125 244.644531 " fill-opacity="1" fill-rule="nonzero"/><path fill="#53554c" d="M 494.996094 238.390625 L 494.996094 225.550781 L 494.378906 225.15625 L 336.148438 225.15625 L 204.296875 211.980469 L 203.847656 212.710938 L 338.171875 238.390625 L 494.996094 238.390625 " fill-opacity="1" fill-rule="nonzero"/><path fill="#272721" d="M 522.449219 241.828125 L 522.449219 230.113281 L 520.761719 231.746094 L 504.730469 231.746094 L 494.996094 225.550781 L 494.996094 238.390625 L 504.390625 244.644531 L 519.578125 244.644531 L 522.390625 241.828125 L 522.449219 241.828125 " fill-opacity="1" fill-rule="nonzero"/><path fill="#272721" d="M 609.296875 262.328125 L 609.296875 244.472656 L 569.753906 233.660156 L 552.542969 233.660156 L 552.542969 248.921875 L 565.421875 248.921875 L 609.296875 262.328125 " fill-opacity="1" fill-rule="nonzero"/><path fill="#53554c" d="M 638.773438 262.328125 L 638.773438 244.980469 L 611.210938 244.980469 L 609.296875 244.472656 L 609.296875 262.328125 L 638.773438 262.328125 " fill-opacity="1" fill-rule="nonzero"/><path fill="#53554c" d="M 645.074219 244.980469 L 645.074219 262.328125 L 638.773438 262.328125 L 638.773438 244.980469 Z M 645.074219 244.980469 " fill-opacity="1" fill-rule="nonzero"/><path fill="#53554c" d="M 1113.746094 251.625 L 1113.746094 250.386719 L 1105.648438 244.980469 L 943.027344 244.980469 L 943.027344 251.625 L 1113.746094 251.625 " fill-opacity="1" fill-rule="nonzero"/><path fill="#272721" d="M 1113.746094 251.625 L 1113.746094 265.367188 L 943.027344 265.367188 L 943.027344 251.625 Z M 1113.746094 251.625 " fill-opacity="1" fill-rule="nonzero"/><path fill="#2d2c25" d="M 1385.996094 272.464844 L 1385.996094 229.777344 L 1292.453125 224.257812 L 1292.453125 260.128906 L 1385.996094 272.464844 " fill-opacity="1" fill-rule="nonzero"/><path fill="#616459" d="M 1292.453125 260.128906 L 1292.453125 224.257812 L 1292.117188 224.257812 L 1289.921875 223.242188 L 1289.921875 257.539062 L 1292.117188 260.074219 L 1292.453125 260.128906 " fill-opacity="1" fill-rule="nonzero"/><path fill="#2d2c25" d="M 1118.808594 252.527344 L 1118.808594 220.484375 L 1113.746094 220.484375 L 1113.746094 250.386719 L 1116.953125 252.527344 L 1118.808594 252.527344 " fill-opacity="1" fill-rule="nonzero"/><path fill="#2d2c25" d="M 1289.921875 257.539062 L 1289.921875 223.242188 L 1283.679688 220.484375 L 1280.136719 220.484375 L 1280.136719 227.015625 L 1130.621094 227.015625 L 1130.621094 220.484375 L 1118.808594 220.484375 L 1118.808594 252.527344 L 1285.535156 252.527344 L 1289.921875 257.539062 " fill-opacity="1" fill-rule="nonzero"/><path fill="#616459" d="M 1280.136719 220.484375 L 1280.136719 227.015625 L 1130.621094 227.015625 L 1130.621094 220.484375 Z M 1280.136719 220.484375 " fill-opacity="1" fill-rule="nonzero"/><path fill="#2d2c25" d="M 943.027344 244.980469 L 943.027344 220.484375 L 936.730469 220.484375 L 936.730469 230.394531 L 903.542969 230.394531 L 903.542969 227.972656 L 898.761719 227.972656 L 898.761719 250.613281 L 902.246094 250.613281 L 907.871094 244.980469 L 943.027344 244.980469 " fill-opacity="1" fill-rule="nonzero"/><path fill="#616459" d="M 898.761719 227.972656 L 898.761719 250.613281 L 893.753906 250.613281 L 893.753906 227.972656 Z M 898.761719 227.972656 " fill-opacity="1" fill-rule="nonzero"/><path fill="#616459" d="M 830.527344 247.234375 L 830.527344 230.394531 L 826.589844 230.394531 L 823.105469 233.660156 L 821.246094 233.660156 L 821.246094 254.386719 L 822.148438 254.386719 L 830.527344 247.234375 " fill-opacity="1" fill-rule="nonzero"/><path fill="#2d2c25" d="M 761.398438 252.640625 L 761.398438 232.253906 L 746.773438 226.117188 L 744.523438 226.117188 L 744.523438 245.601562 L 761.398438 252.640625 " fill-opacity="1" fill-rule="nonzero"/><path fill="#616459" d="M 821.246094 254.386719 L 821.246094 233.660156 L 821.078125 233.660156 L 821.078125 234.113281 L 795.035156 234.113281 L 795.035156 233.660156 L 764.714844 233.660156 L 761.398438 232.253906 L 761.398438 252.640625 L 765.617188 254.386719 L 821.246094 254.386719 " fill-opacity="1" fill-rule="nonzero"/><path fill="#616459" d="M 744.523438 245.601562 L 744.523438 226.117188 L 645.074219 226.117188 L 645.074219 244.980469 L 743.003906 244.980469 L 744.523438 245.601562 " fill-opacity="1" fill-rule="nonzero"/><path fill="#616459" d="M 936.730469 230.394531 L 936.730469 220.484375 L 908.773438 220.484375 L 905.960938 227.972656 L 903.542969 227.972656 L 903.542969 230.394531 L 936.730469 230.394531 " fill-opacity="1" fill-rule="nonzero"/><path fill="#2d2c25" d="M 893.753906 250.613281 L 893.753906 227.972656 L 888.410156 227.972656 L 888.410156 230.394531 L 855.785156 230.394531 L 855.785156 248.417969 L 860.792969 250.613281 L 893.753906 250.613281 " fill-opacity="1" fill-rule="nonzero"/><path fill="#2d2c25" d="M 847.347656 244.699219 L 847.347656 230.394531 L 830.527344 230.394531 L 830.527344 247.234375 L 835.367188 243.121094 L 843.804688 243.121094 L 847.347656 244.699219 " fill-opacity="1" fill-rule="nonzero"/><path fill="#616459" d="M 855.785156 248.417969 L 855.785156 230.394531 L 847.347656 230.394531 L 847.347656 244.699219 L 855.785156 248.417969 " fill-opacity="1" fill-rule="nonzero"/><path fill="#616459" d="M 888.410156 230.394531 L 888.410156 227.972656 L 864.503906 227.972656 L 845.714844 221.441406 L 836.265625 221.441406 L 826.589844 230.394531 L 888.410156 230.394531 " fill-opacity="1" fill-rule="nonzero"/><path fill="#616459" d="M 821.078125 233.660156 L 821.078125 234.113281 L 795.035156 234.113281 L 795.035156 233.660156 Z M 821.078125 233.660156 " fill-opacity="1" fill-rule="nonzero"/><path fill="#2d2c25" d="M 552.542969 233.660156 L 552.542969 214.910156 L 545.230469 211.980469 L 533.023438 211.980469 L 527.339844 217.667969 L 522.449219 217.667969 L 522.449219 230.113281 L 525.484375 227.074219 L 532.066406 227.074219 L 550.910156 233.660156 L 552.542969 233.660156 " fill-opacity="1" fill-rule="nonzero"/><path fill="#7f8476" d="M 203.847656 212.710938 L 200.191406 212.035156 L 138.878906 212.035156 L 138.542969 211.8125 L 138.824219 212.035156 L 200.191406 212.035156 L 203.847656 212.710938 " fill-opacity="1" fill-rule="nonzero"/><path fill="#616459" d="M 494.996094 225.550781 L 494.996094 212.9375 L 337.105469 212.9375 L 207.109375 204.433594 L 200.191406 204.433594 L 200.191406 212.035156 L 203.847656 212.710938 L 204.296875 211.980469 L 336.148438 225.15625 L 494.378906 225.15625 L 494.996094 225.550781 " fill-opacity="1" fill-rule="nonzero"/><path fill="#35372f" d="M 200.191406 204.433594 L 200.191406 212.035156 L 188.605469 212.035156 L 188.605469 204.433594 Z M 200.191406 204.433594 " fill-opacity="1" fill-rule="nonzero"/><path fill="#616459" d="M 188.605469 212.035156 L 188.605469 204.433594 L 149.679688 204.433594 L 138.824219 211.640625 L 138.542969 211.8125 L 138.878906 212.035156 L 188.605469 212.035156 " fill-opacity="1" fill-rule="nonzero"/><path fill="#616459" d="M 522.449219 217.667969 L 522.449219 229.042969 L 513.898438 229.042969 L 513.898438 217.667969 Z M 522.449219 217.667969 " fill-opacity="1" fill-rule="nonzero"/><path fill="#2d2c25" d="M 522.449219 230.113281 L 522.449219 229.042969 L 513.898438 229.042969 L 513.898438 217.667969 L 505.683594 217.667969 L 495.335938 212.9375 L 494.996094 212.9375 L 494.996094 225.550781 L 504.730469 231.746094 L 520.761719 231.746094 L 522.449219 230.113281 " fill-opacity="1" fill-rule="nonzero"/><path fill="#616459" d="M 602.546875 229.382812 L 602.546875 223.414062 L 574.421875 217.667969 L 559.347656 217.667969 L 552.542969 214.910156 L 552.542969 220.597656 L 602.546875 229.382812 " fill-opacity="1" fill-rule="nonzero"/><path fill="#2d2c25" d="M 609.296875 244.472656 L 609.296875 224.765625 L 602.546875 223.414062 L 602.546875 229.382812 L 552.542969 220.597656 L 552.542969 233.660156 L 569.753906 233.660156 L 609.296875 244.472656 " fill-opacity="1" fill-rule="nonzero"/><path fill="#616459" d="M 638.773438 244.980469 L 638.773438 243.96875 L 609.296875 243.96875 L 609.296875 244.472656 L 611.210938 244.980469 L 638.773438 244.980469 " fill-opacity="1" fill-rule="nonzero"/><path fill="#616459" d="M 645.074219 244.980469 L 645.074219 226.117188 L 615.878906 226.117188 L 609.296875 224.765625 L 609.296875 243.96875 L 638.773438 243.96875 L 638.773438 244.980469 L 645.074219 244.980469 " fill-opacity="1" fill-rule="nonzero"/><path fill="#616459" d="M 1113.746094 250.386719 L 1113.746094 220.484375 L 943.027344 220.484375 L 943.027344 244.980469 L 1105.648438 244.980469 L 1113.746094 250.386719 " fill-opacity="1" fill-rule="nonzero"/><path fill="#313129" d="M 1385.996094 229.777344 L 1385.996094 191.199219 L 1292.453125 191.199219 L 1292.453125 224.257812 L 1385.996094 229.777344 " fill-opacity="1" fill-rule="nonzero"/><path fill="#6b6f64" d="M 1292.453125 224.257812 L 1292.453125 191.199219 L 1289.921875 191.199219 L 1289.921875 223.242188 L 1292.117188 224.257812 L 1292.453125 224.257812 " fill-opacity="1" fill-rule="nonzero"/><path fill="#313129" d="M 1118.808594 191.199219 L 1118.808594 220.484375 L 1113.746094 220.484375 L 1113.746094 191.199219 Z M 1118.808594 191.199219 " fill-opacity="1" fill-rule="nonzero"/><path fill="#313129" d="M 1289.921875 223.242188 L 1289.921875 191.199219 L 1280.136719 191.199219 L 1280.136719 220.484375 L 1283.679688 220.484375 L 1289.921875 223.242188 M 1130.621094 220.484375 L 1130.621094 191.199219 L 1118.808594 191.199219 L 1118.808594 220.484375 L 1130.621094 220.484375 " fill-opacity="1" fill-rule="nonzero"/><path fill="#6b6f64" d="M 1280.136719 191.199219 L 1280.136719 220.484375 L 1130.621094 220.484375 L 1130.621094 191.199219 Z M 1280.136719 191.199219 " fill-opacity="1" fill-rule="nonzero"/><path fill="#313129" d="M 943.027344 220.484375 L 943.027344 191.199219 L 936.730469 191.199219 L 936.730469 220.484375 L 943.027344 220.484375 M 903.542969 227.972656 L 903.542969 191.199219 L 898.761719 191.199219 L 898.761719 227.972656 L 903.542969 227.972656 " fill-opacity="1" fill-rule="nonzero"/><path fill="#6b6f64" d="M 898.761719 191.199219 L 898.761719 228.03125 L 893.753906 228.03125 L 893.753906 191.199219 Z M 898.761719 191.199219 " fill-opacity="1" fill-rule="nonzero"/><path fill="#6b6f64" d="M 826.589844 230.394531 L 826.027344 230.394531 L 826.027344 191.199219 L 821.246094 191.199219 L 821.246094 233.660156 L 823.105469 233.660156 L 826.589844 230.394531 " fill-opacity="1" fill-rule="nonzero"/><path fill="#313129" d="M 761.398438 232.253906 L 761.398438 191.199219 L 744.523438 191.199219 L 744.523438 226.117188 L 746.773438 226.117188 L 761.398438 232.253906 " fill-opacity="1" fill-rule="nonzero"/><path fill="#6b6f64" d="M 821.246094 233.660156 L 821.246094 191.199219 L 761.398438 191.199219 L 761.398438 232.253906 L 764.714844 233.660156 L 795.035156 233.660156 L 795.035156 227.578125 L 799.085938 223.523438 L 799.085938 200.546875 L 797.453125 198.914062 L 797.453125 193.621094 L 798.183594 193.789062 L 809.828125 193.789062 L 813.765625 197.789062 L 813.765625 219.074219 L 816.128906 221.496094 L 816.128906 229.945312 L 821.078125 229.945312 L 821.078125 233.660156 L 821.246094 233.660156 " fill-opacity="1" fill-rule="nonzero"/><path fill="#6b6f64" d="M 744.523438 191.199219 L 744.523438 226.117188 L 645.074219 226.117188 L 645.074219 191.199219 Z M 744.523438 191.199219 " fill-opacity="1" fill-rule="nonzero"/><path fill="#6b6f64" d="M 936.730469 220.484375 L 936.730469 191.199219 L 903.542969 191.199219 L 903.542969 227.972656 L 905.960938 227.972656 L 908.773438 220.484375 L 936.730469 220.484375 " fill-opacity="1" fill-rule="nonzero"/><path fill="#313129" d="M 893.753906 191.199219 L 893.753906 228.03125 L 888.410156 228.03125 L 888.410156 191.199219 Z M 893.753906 191.199219 " fill-opacity="1" fill-rule="nonzero"/><path fill="#6b6f64" d="M 888.410156 227.972656 L 888.410156 191.199219 L 826.027344 191.199219 L 826.027344 230.394531 L 826.589844 230.394531 L 836.265625 221.441406 L 845.714844 221.441406 L 864.503906 227.972656 L 888.410156 227.972656 " fill-opacity="1" fill-rule="nonzero"/><path fill="#6b6f64" d="M 821.078125 233.660156 L 821.078125 229.945312 L 816.128906 229.945312 L 816.128906 221.496094 L 813.765625 219.074219 L 813.765625 197.789062 L 809.828125 193.789062 L 798.183594 193.789062 L 797.453125 193.621094 L 797.453125 198.914062 L 799.085938 200.546875 L 799.085938 223.523438 L 795.035156 227.578125 L 795.035156 233.660156 L 821.078125 233.660156 " fill-opacity="1" fill-rule="nonzero"/><path fill="#313129" d="M 552.542969 214.910156 L 552.542969 191.199219 L 522.449219 191.199219 L 522.449219 217.667969 L 527.339844 217.667969 L 533.023438 211.980469 L 545.230469 211.980469 L 552.542969 214.910156 " fill-opacity="1" fill-rule="nonzero"/><path fill="#8d9282" d="M 138.542969 211.8125 L 120.089844 198.011719 L 120.089844 191.199219 L 120.089844 198.011719 L 82.121094 198.011719 L 120.035156 198.011719 L 138.542969 211.8125 M 80.996094 199.308594 L 77.847656 199.308594 L 76.835938 198.351562 C 76.441406 195.421875 74.191406 195.085938 73.179688 195.085938 C 74.191406 195.085938 76.386719 195.480469 76.777344 198.351562 L 77.847656 199.308594 L 80.996094 199.308594 M 7.480469 195.140625 C 5.171875 195.140625 0.0546875 194.746094 0.0546875 191.199219 L -0.00390625 191.199219 C -0.00390625 194.746094 5.171875 195.140625 7.480469 195.140625 " fill-opacity="1" fill-rule="nonzero"/><path fill="#6b6f64" d="M 494.996094 212.9375 L 494.996094 191.199219 L 200.191406 191.199219 L 200.191406 204.433594 L 207.109375 204.433594 L 337.105469 212.9375 L 494.996094 212.9375 " fill-opacity="1" fill-rule="nonzero"/><path fill="#3a3d35" d="M 200.191406 191.199219 L 200.191406 204.433594 L 188.605469 204.433594 L 188.605469 191.199219 Z M 200.191406 191.199219 " fill-opacity="1" fill-rule="nonzero"/><path fill="#6b6f64" d="M 120.089844 198.011719 L 120.089844 191.199219 L 119.304688 191.199219 L 118.515625 197.5625 L 112.949219 191.929688 L 107.042969 197.84375 L 100.347656 191.199219 L 98.886719 191.199219 L 92.808594 197.28125 L 87.355469 191.199219 L 86.847656 191.199219 L 82.121094 195.875 L 82.121094 198.011719 L 120.089844 198.011719 " fill-opacity="1" fill-rule="nonzero"/><path fill="#6b6f64" d="M 188.605469 204.433594 L 188.605469 191.199219 L 120.089844 191.199219 L 120.089844 198.011719 L 138.542969 211.8125 L 138.824219 211.640625 L 149.679688 204.433594 L 188.605469 204.433594 " fill-opacity="1" fill-rule="nonzero"/><path fill="#6b6f64" d="M 82.121094 198.011719 L 81.730469 198.011719 L 81.730469 191.199219 L -0.00390625 191.199219 C 0.0546875 194.746094 5.171875 195.140625 7.480469 195.140625 C 8.097656 195.140625 8.546875 195.140625 8.546875 195.140625 L 72.671875 195.140625 C 72.671875 195.140625 72.898438 195.085938 73.179688 195.085938 C 74.191406 195.085938 76.441406 195.421875 76.835938 198.351562 L 77.847656 199.308594 L 80.996094 199.308594 L 82.121094 198.183594 L 82.121094 198.011719 " fill-opacity="1" fill-rule="nonzero"/><path fill="#6b6f64" d="M 82.121094 198.011719 L 82.121094 195.875 L 82.066406 195.984375 L 82.066406 191.199219 L 81.730469 191.199219 L 81.730469 198.011719 L 82.121094 198.011719 " fill-opacity="1" fill-rule="nonzero"/><path fill="#6b6f64" d="M 522.449219 217.667969 L 522.449219 191.199219 L 514.460938 191.199219 L 514.460938 201.675781 C 514.460938 201.675781 514.742188 201.617188 515.191406 201.617188 C 516.652344 201.617188 519.804688 202.125 519.804688 206.460938 C 519.804688 211.585938 514.910156 211.8125 514.011719 211.8125 C 513.953125 211.8125 513.898438 211.8125 513.898438 211.8125 L 513.898438 217.667969 L 522.449219 217.667969 " fill-opacity="1" fill-rule="nonzero"/><path fill="#313129" d="M 519.804688 206.460938 C 519.804688 202.125 516.652344 201.617188 515.191406 201.617188 C 514.742188 201.617188 514.460938 201.675781 514.460938 201.675781 L 514.460938 191.199219 L 494.996094 191.199219 L 494.996094 212.9375 L 495.335938 212.9375 L 505.683594 217.667969 L 513.898438 217.667969 L 513.898438 211.8125 C 513.898438 211.8125 513.953125 211.8125 514.011719 211.8125 C 514.910156 211.8125 519.804688 211.585938 519.804688 206.460938 " fill-opacity="1" fill-rule="nonzero"/><path fill="#6b6f64" d="M 602.546875 223.414062 L 602.546875 191.199219 L 561.484375 191.199219 C 560.640625 191.820312 559.628906 192.15625 558.503906 192.15625 L 552.542969 192.15625 L 552.542969 214.910156 L 559.347656 217.667969 L 574.421875 217.667969 L 602.546875 223.414062 " fill-opacity="1" fill-rule="nonzero"/><path fill="#313129" d="M 609.296875 224.765625 L 609.296875 191.199219 L 602.546875 191.199219 L 602.546875 223.414062 L 609.296875 224.765625 " fill-opacity="1" fill-rule="nonzero"/><path fill="#313129" d="M 561.484375 191.199219 L 552.542969 191.199219 L 552.542969 192.15625 L 558.503906 192.15625 C 559.628906 192.15625 560.640625 191.820312 561.484375 191.199219 " fill-opacity="1" fill-rule="nonzero"/><path fill="#6b6f64" d="M 645.074219 226.117188 L 645.074219 191.199219 L 609.296875 191.199219 L 609.296875 224.765625 L 615.878906 226.117188 L 645.074219 226.117188 " fill-opacity="1" fill-rule="nonzero"/><path fill="#6b6f64" d="M 113.679688 191.199219 L 112.160156 191.199219 L 112.949219 191.929688 L 113.679688 191.199219 " fill-opacity="1" fill-rule="nonzero"/><path fill="#6b6f64" d="M 1113.746094 191.199219 L 1113.746094 220.484375 L 943.027344 220.484375 L 943.027344 191.199219 Z M 1113.746094 191.199219 " fill-opacity="1" fill-rule="nonzero"/><path fill="#6b6f64" d="M 119.304688 191.199219 L 113.679688 191.199219 L 112.949219 191.929688 L 118.515625 197.5625 L 119.304688 191.199219 M 112.949219 191.929688 L 112.160156 191.199219 L 100.347656 191.199219 L 107.042969 197.84375 L 112.949219 191.929688 M 98.886719 191.199219 L 87.355469 191.199219 L 92.808594 197.28125 L 98.886719 191.199219 M 86.847656 191.199219 L 82.066406 191.199219 L 82.066406 195.984375 L 82.121094 195.875 L 86.847656 191.199219 " fill-opacity="1" fill-rule="nonzero"/><path fill="#272721" d="M 1369.347656 315.488281 L 1369.347656 287.613281 L 1325.417969 278.828125 L 1325.472656 278.996094 L 1346.960938 317.742188 C 1347.746094 319.148438 1349.324219 320.050781 1350.953125 320.050781 L 1364.792969 320.050781 C 1367.324219 320.050781 1369.347656 318.023438 1369.347656 315.488281 " fill-opacity="1" fill-rule="nonzero"/></svg>